<?xml version="1.0" encoding="UTF-8"?>
<svg width="71" height="71" viewBox="0 0 71 71" fill="none" xmlns="http://www.w3.org/2000/svg">
  <title>Groove Work</title>
  <defs>
    <clipPath id="m">
      <circle cx="35.197" cy="35.197" r="35.197"/>
    </clipPath>
    <radialGradient id="disc" cx="0.32" cy="0.22" r="0.95">
      <stop offset="0" stop-color="#7d8086"/>
      <stop offset="0.55" stop-color="#33373d"/>
      <stop offset="1" stop-color="#1d1f23"/>
    </radialGradient>
    <linearGradient id="deep" x1="0" y1="0" x2="0" y2="1">
      <stop offset="0" stop-color="#f08a55"/>
      <stop offset="0.5" stop-color="#e8590c"/>
    </linearGradient>
    <linearGradient id="mid" x1="0" y1="0" x2="0" y2="1">
      <stop offset="0" stop-color="#f8bc5b"/>
      <stop offset="0.5" stop-color="#ef8519"/>
    </linearGradient>
    <linearGradient id="soft" x1="0" y1="0" x2="0" y2="1">
      <stop offset="0" stop-color="#ffffff"/>
      <stop offset="0.5" stop-color="#ffe0d2"/>
    </linearGradient>
    <linearGradient id="rim" x1="0" y1="0" x2="0" y2="1">
      <stop offset="0" stop-color="#ffffff" stop-opacity="0.45"/>
      <stop offset="1" stop-color="#000000" stop-opacity="0.3"/>
    </linearGradient>
  </defs>
  <g clip-path="url(#m)">
    <circle cx="35.197" cy="35.197" r="35.197" fill="url(#disc)"/>
    <path fill="url(#deep)" d="M-17.0076 34.0765C-17.0076 34.0765 -9.94135 5.77754 7.42573 3.57601C24.7928 1.37451 33.6048 31.4667 50.3846 29.3396C67.1646 27.2125 79.0774 4.89627 79.0774 4.89627L88.45 78.8342L-9.20534 91.2133L-17.0076 34.0765Z"/>
    <path fill="url(#mid)" d="M-20.3477 51.1056C-20.3477 51.1056 -10.8051 24.0658 10.3386 21.3856C31.4824 18.7053 41.1404 46.8986 61.5692 44.3089C81.9981 41.7193 97.2149 20.1787 97.2149 20.1787L106.05 89.872L-12.842 104.943L-20.3477 51.1056Z"/>
    <path fill="url(#soft)" d="M-32.5352 57.1393C-32.5352 57.1393 -23.4531 30.8684 -3.21909 28.3035C17.0149 25.7385 26.3144 53.1681 45.8642 50.6899C65.4141 48.2117 79.9383 27.2983 79.9383 27.2983L88.5299 95.0747L-25.2463 109.497L-32.5352 57.1393Z"/>
    <path fill="none" stroke="#000000" stroke-opacity="0.18" stroke-width="0.8" d="M-32.5352 57.1393C-32.5352 57.1393 -23.4531 30.8684 -3.21909 28.3035C17.0149 25.7385 26.3144 53.1681 45.8642 50.6899C65.4141 48.2117 79.9383 27.2983 79.9383 27.2983"/>
  </g>
  <circle cx="35.197" cy="35.197" r="34.6" fill="none" stroke="url(#rim)" stroke-width="1.2"/>
</svg>
