<?xml version="1.0" encoding="UTF-8"?>
<svg width="71px" height="71px" viewBox="0 0 71 71" version="1.1" xmlns="http://www.w3.org/2000/svg" xmlns:xlink="http://www.w3.org/1999/xlink">
    <title>logo</title>
    <defs>
        <path d="M70.3941,35.1971 C70.3941,15.7583 54.6359,0 35.1971,0 C15.7583,0 0,15.7583 0,35.1971 C0,54.6359 15.7583,70.3942 35.1971,70.3942 C54.6359,70.3942 70.3941,54.6359 70.3941,35.1971 Z" id="path-1"></path>
    </defs>
    <g id="logo" stroke="none" fill="none" fill-rule="evenodd" stroke-width="1">
        <g id="Clipped">
            <mask id="mask-2" fill="white">
                <use xlink:href="#path-1"></use>
            </mask>
            <g id="Path"></g>
            <g id="Group" mask="url(#mask-2)">
                <path d="M70.3953,35.1972 C70.3953,15.7584 54.637,0.000160487 35.1982,0.000160487 C15.7594,0.000160487 0.00113068,15.7584 0.00113068,35.1972 C0.00113068,54.636 15.7594,70.3943 35.1982,70.3943 C54.637,70.3943 70.3953,54.636 70.3953,35.1972 Z" id="Path" fill="#FFFFFF"></path>
                <path d="M70.3944,35.1971 C70.3944,15.7583 54.6361,0 35.1973,0 C15.7585,0 0.000247999,15.7583 0.000247999,35.1971 C0.000247999,54.6359 15.7585,70.3942 35.1973,70.3942 C54.6361,70.3942 70.3944,54.6359 70.3944,35.1971 Z" id="Path" fill="#A5D8FF"></path>
                <path d="M-17.0076,34.0765 C-17.0076,34.0765 -9.94135,5.77754 7.42573,3.57601 C24.7928,1.37451 33.6048,31.4667 50.3846,29.3396 C67.1646,27.2125 79.0774,4.89627 79.0774,4.89627 L88.45,78.8342 L-9.20534,91.2133 L-17.0076,34.0765 Z" id="Path" fill="#2558A9"></path>
                <path d="M-20.3477,51.1056 C-20.3477,51.1056 -10.8051,24.0658 10.3386,21.3856 C31.4824,18.7053 41.1404,46.8986 61.5692,44.3089 C81.9981,41.7193 97.2149,20.1787 97.2149,20.1787 L106.05,89.872 L-12.842,104.943 L-20.3477,51.1056 Z" id="Path" fill="#1195ED"></path>
                <path d="M-32.5352,57.1393 C-32.5352,57.1393 -23.4531,30.8684 -3.21909,28.3035 C17.0149,25.7385 26.3144,53.1681 45.8642,50.6899 C65.4141,48.2117 79.9383,27.2983 79.9383,27.2983 L88.5299,95.0747 L-25.2463,109.497 L-32.5352,57.1393 Z" id="Path" fill="#A5D8FF"></path>
            </g>
        </g>
    </g>
</svg>