<svg width="71" height="71" viewBox="0 0 71 71" fill="none" xmlns="http://www.w3.org/2000/svg">
<mask id="mask0_443_47" style="mask-type:alpha" maskUnits="userSpaceOnUse" x="0" y="0" width="71" height="71">
<path d="M70.3942 35.1971C70.3942 15.7583 54.6359 0 35.1971 0C15.7583 0 0 15.7583 0 35.1971C0 54.6359 15.7583 70.3942 35.1971 70.3942C54.6359 70.3942 70.3942 54.6359 70.3942 35.1971Z" fill="#FFA5FF"/>
</mask>
<g mask="url(#mask0_443_47)">
<path d="M70.3953 35.1972C70.3953 15.7584 54.637 0.000160487 35.1982 0.000160487C15.7594 0.000160487 0.00113068 15.7584 0.00113068 35.1972C0.00113068 54.636 15.7594 70.3943 35.1982 70.3943C54.637 70.3943 70.3953 54.636 70.3953 35.1972Z" fill="white"/>
<path d="M70.3944 35.1971C70.3944 15.7583 54.6361 0 35.1973 0C15.7585 0 0.000247999 15.7583 0.000247999 35.1971C0.000247999 54.6359 15.7585 70.3942 35.1973 70.3942C54.6361 70.3942 70.3944 54.6359 70.3944 35.1971Z" fill="#FFA5FF"/>
<path fill-rule="evenodd" clip-rule="evenodd" d="M-17.0076 34.0765C-17.0076 34.0765 -9.94135 5.77754 7.42573 3.57601C24.7928 1.37451 33.6048 31.4667 50.3846 29.3396C67.1646 27.2125 79.0774 4.89627 79.0774 4.89627L88.45 78.8342L-9.20534 91.2133L-17.0076 34.0765Z" fill="#A525A9"/>
<path fill-rule="evenodd" clip-rule="evenodd" d="M-20.3477 51.1056C-20.3477 51.1056 -10.8051 24.0658 10.3386 21.3856C31.4824 18.7053 41.1404 46.8986 61.5692 44.3089C81.9981 41.7193 97.2149 20.1787 97.2149 20.1787L106.05 89.872L-12.842 104.943L-20.3477 51.1056Z" fill="#DB11ED"/>
<path fill-rule="evenodd" clip-rule="evenodd" d="M-32.5352 57.1393C-32.5352 57.1393 -23.4531 30.8684 -3.21909 28.3035C17.0149 25.7385 26.3144 53.1681 45.8642 50.6899C65.4141 48.2117 79.9383 27.2983 79.9383 27.2983L88.5299 95.0747L-25.2463 109.497L-32.5352 57.1393Z" fill="#FFA5FF"/>
</g>
<g opacity="0.48" style="mix-blend-mode:soft-light">
<path d="M30.9276 18.0414L30.9282 53.5H20.0007L20 18.0414H30.9276Z" fill="white"/>
<path d="M50.284 12V57.4586H39.3564V12H50.284Z" fill="white"/>
</g>
</svg>
